PathFileType	4	(x/y/z)	S10_P20_T16
DataRate	CameraRate	NumFrames	NumMarkers	Units	OrigDataRate	OrigDataStartFrame	OrigNumFrames
240	240	7	51	mm	240	249	398
Frame#	Time	Sternum			R.Acromium			L.Acromium			Top.Head			R.ASIS			L.ASIS			R.PSIS			L.PSIS			R.Great.Tro			L.Great.Tro			R.Iliac.Crest			L.Iliac.Crest			V.Sacral			R.Thigh.Upper.Post			R.Thigh.Lower.Ant			R.Thigh.Lower.Post			R.Thigh.Upper.Ant			R.Knee.Lat			R.Knee.Med			R.Shank.Upper.Post			R.Shank.Lower.Ant			R.Shank.Lower.Post			R.Shank.Upper.Ant			R.Ankle.Lat			R.Ankle.Med			R.Heel.Upper			R.Heel.Med			R.Heel.Lat			R.Toe.Lat			R.Toe.Med			R.Toe.Tip			L.Thigh.Upper.Post			L.Thigh.Lower.Ant			L.Thigh.Lower.Post			L.Thigh.Upper.Ant			L.Knee.Lat			L.Knee.Med			L.Shank.Upper.Post			L.Shank.Lower.Ant			L.Shank.Lower.Post			L.Shank.Upper.Ant			L.Ankle.Lat			L.Ankle.Med			L.Heel.Upper			L.Heel.Med			L.Heel.Lat			L.Toe.Lat			L.Toe.Med			L.Toe.Tip			Cervical.Spine			Back			
		X1	Y1	Z1	X2	Y2	Z2	X3	Y3	Z3	X4	Y4	Z4	X5	Y5	Z5	X6	Y6	Z6	X7	Y7	Z7	X8	Y8	Z8	X9	Y9	Z9	X10	Y10	Z10	X11	Y11	Z11	X12	Y12	Z12	X13	Y13	Z13	X14	Y14	Z14	X15	Y15	Z15	X16	Y16	Z16	X17	Y17	Z17	X18	Y18	Z18	X19	Y19	Z19	X20	Y20	Z20	X21	Y21	Z21	X22	Y22	Z22	X23	Y23	Z23	X24	Y24	Z24	X25	Y25	Z25	X26	Y26	Z26	X27	Y27	Z27	X28	Y28	Z28	X29	Y29	Z29	X30	Y30	Z30	X31	Y31	Z31	X32	Y32	Z32	X33	Y33	Z33	X34	Y34	Z34	X35	Y35	Z35	X36	Y36	Z36	X37	Y37	Z37	X38	Y38	Z38	X39	Y39	Z39	X40	Y40	Z40	X41	Y41	Z41	X42	Y42	Z42	X43	Y43	Z43	X44	Y44	Z44	X45	Y45	Z45	X46	Y46	Z46	X47	Y47	Z47	X48	Y48	Z48	X49	Y49	Z49	X50	Y50	Z50	X51	Y51	Z51	

249	1.0333	67.638	1271.6	258.38	-42.568	1434	417.19	-74.096	1455.2	120.83	-63.075	1749.6	276.1	23.603	996.09	381.82	17.23	1022.7	150.85	-179.44	1025.6	299.45	-176.77	1033.8	218.35	-59.242	920.55	455.47	-40.818	961.8	92.024	-68.022	1077.6	430.62	-53.643	1093.4	123.74	-200.57	995.96	261.97	-88.382	711.14	448.39	-44.911	623.79	414.51	-110.71	625.01	438.01	-20.312	711.5	421.08	-146.91	502.41	401.08	-147.38	507.22	273.53	-327.65	354.4	400.25	-310.69	264.5	383.38	-369.52	293.55	394.43	-261.71	324.55	391.2	-415.24	194.38	372.43	-406.87	200.87	293.43	-489	199.57	324.71	-504.54	176.64	297	-503.39	179.81	359.09	-395.56	49.894	394.99	-378.62	41.62	286.02	-324.69	41.517	318.95	-12.233	679.93	99.408	75.915	619.53	127.49	9.8875	589.49	123.41	61.636	706.67	103.65	67.63	518.32	135.28	72.08	520.23	264.8	35.024	298.47	132.86	113.05	221.6	149.74	49.216	222.38	141.53	99.47	296.86	141.02	95.544	106.5	153.75	106.48	117.75	239.99	34.298	73.44	197.9	46.23	42.219	232.16	43.704	43.811	166.87	220.93	49.244	137.55	242.28	63.818	243.38	295.64	82.208	198.68	-130.41	1490.7	285.34	-214.84	1281.3	287.81
250	1.0375	73.303	1271.1	257.68	-37.407	1433.4	416.5	-68.426	1454.6	120.07	-57.964	1749.2	275.65	29.202	995.62	381.2	23.035	1022.3	150.27	-173.79	1025	298.91	-171.01	1033.2	217.81	-53.38	919.76	454.81	-34.735	961.57	91.373	-62.589	1077	430.03	-47.879	1093	123.14	-194.77	995.25	261.32	-81.536	710.2	448.16	-37.361	623.04	414.74	-103.21	623.91	438.09	-13.406	710.96	421	-138.81	501.12	401.48	-138.3	505.21	273.94	-320.89	355.28	400.01	-304.93	265.14	383.79	-363.51	294.93	394.35	-255.34	324.69	391.61	-410.03	196.3	372.71	-401.38	202.52	293.45	-482.76	203.5	324.72	-498.98	181.11	296.9	-497.77	184.19	359.02	-394.31	50.996	394.88	-377.65	42.413	285.93	-324.16	41.144	318.84	-5.5712	679.78	99.177	82.524	619.51	127.74	16.532	589.4	123.32	68.237	706.65	103.9	74.221	518.18	135.63	78.076	520.28	265.14	39.315	298.74	132.9	116.23	220.88	150.24	52.463	222.49	141.63	103.67	296.31	141.43	96.748	106.3	153.91	107.78	117.23	240.3	34.791	73.827	198.04	46.372	42.385	232.21	43.85	44.147	166.91	221.32	47.845	137.5	242.96	61.607	243.5	296.64	79.398	198.75	-125.02	1490.2	284.5	-209.27	1280.8	286.95
251	1.0417	78.961	1270.7	257	-32.242	1433	415.84	-62.739	1454.1	119.33	-52.853	1748.7	275.2	34.741	995.18	380.62	28.828	1022.1	149.72	-168.17	1024.3	298.35	-165.28	1032.6	217.26	-47.56	918.99	454.16	-28.652	961.4	90.734	-57.248	1076.5	429.45	-42.115	1092.6	122.58	-189	994.58	260.65	-74.605	709.27	447.94	-29.706	622.32	414.98	-95.592	622.82	438.19	-6.4312	710.47	420.93	-130.54	499.83	401.91	-129.01	503.17	274.36	-313.93	356.2	399.77	-298.98	265.82	384.22	-357.29	296.35	394.27	-248.76	324.86	392.03	-404.58	198.26	373.01	-395.67	204.24	293.47	-476.21	207.53	324.77	-493.1	185.71	296.85	-491.84	188.68	358.99	-392.95	52.239	394.75	-376.54	43.346	285.82	-323.57	40.73	318.74	1.0345	679.64	98.924	89.069	619.5	127.95	23.108	589.33	123.2	74.782	706.65	104.11	80.736	518.05	135.98	84	520.35	265.48	43.516	299.03	132.91	119.3	220.19	150.73	55.608	222.63	141.72	107.77	295.77	141.82	97.87	106.16	154.08	108.99	116.8	240.6	35.217	74.177	198.16	46.49	42.543	232.26	43.971	44.46	166.95	221.65	46.639	137.44	243.57	59.599	243.62	297.53	76.842	198.81	-119.62	1489.8	283.67	-203.71	1280.3	286.1
252	1.0458	84.608	1270.3	256.35	-27.076	1432.6	415.18	-57.035	1453.7	118.61	-47.742	1748.4	274.76	40.218	994.76	380.08	34.611	1021.8	149.22	-162.6	1023.7	297.78	-159.57	1032.1	216.7	-41.789	918.24	453.52	-22.573	961.3	90.111	-52.002	1076.1	428.88	-36.351	1092.3	122.04	-183.26	993.95	259.96	-67.595	708.36	447.76	-21.953	621.64	415.22	-87.865	621.74	438.31	0.60468	710.02	420.87	-122.11	498.55	402.35	-119.52	501.12	274.79	-306.75	357.14	399.56	-292.82	266.55	384.68	-350.85	297.81	394.2	-241.99	325.05	392.47	-398.9	200.28	373.33	-389.73	206.04	293.49	-469.34	211.64	324.88	-486.9	190.44	296.83	-485.6	193.29	359.01	-391.48	53.627	394.61	-375.3	44.423	285.72	-322.89	40.273	318.65	7.5767	679.53	98.651	95.542	619.5	128.13	29.607	589.27	123.06	81.266	706.65	104.29	87.159	517.93	136.32	89.849	520.43	265.83	47.617	299.34	132.9	122.24	219.54	151.22	58.648	222.81	141.79	111.76	295.26	142.18	98.916	106.06	154.24	110.09	116.45	240.9	35.583	74.489	198.26	46.589	42.693	232.3	44.071	44.747	166.98	221.93	45.616	137.36	244.09	57.789	243.74	298.32	74.535	198.87	-114.21	1489.4	282.86	-198.17	1279.8	285.25
253	1.05	90.241	1269.9	255.73	-21.912	1432.2	414.55	-51.314	1453.2	117.92	-42.632	1748	274.33	45.632	994.38	379.59	40.382	1021.6	148.75	-157.07	1023.1	297.2	-153.88	1031.7	216.13	-36.073	917.51	452.88	-16.5	961.25	89.509	-46.853	1075.6	428.32	-30.587	1092.1	121.53	-177.56	993.36	259.24	-60.513	707.48	447.6	-14.113	621.02	415.47	-80.038	620.67	438.44	7.6955	709.63	420.81	-113.54	497.3	402.81	-109.85	499.09	275.23	-299.38	358.12	399.37	-286.48	267.32	385.16	-344.2	299.31	394.14	-235.03	325.27	392.92	-392.99	202.33	373.68	-383.57	207.92	293.52	-462.17	215.82	325.04	-480.37	195.27	296.86	-479.05	197.99	359.07	-389.88	55.163	394.47	-373.88	45.648	285.61	-322.13	39.776	318.59	14.047	679.43	98.36	101.93	619.5	128.29	36.018	589.21	122.9	87.68	706.65	104.44	93.475	517.8	136.66	95.618	520.51	266.17	51.606	299.67	132.86	125.07	218.91	151.69	61.578	223.01	141.86	115.62	294.76	142.52	99.891	105.99	154.4	111.1	116.17	241.18	35.896	74.765	198.36	46.672	42.832	232.34	44.155	45.008	167.01	222.17	44.762	137.27	244.55	56.173	243.87	299.02	72.469	198.93	-108.81	1489.1	282.07	-192.66	1279.4	284.4
254	1.0542	95.858	1269.6	255.14	-16.753	1431.9	413.93	-45.576	1452.9	117.26	-37.525	1747.7	273.9	50.981	994.03	379.15	46.143	1021.5	148.33	-151.58	1022.6	296.59	-148.21	1031.3	215.54	-30.417	916.81	452.25	-10.438	961.26	88.929	-41.8	1075.2	427.77	-24.823	1091.9	121.06	-171.89	992.83	258.5	-53.367	706.63	447.47	-6.1936	620.46	415.72	-72.123	619.64	438.6	14.834	709.3	420.78	-104.83	496.08	403.28	-100	497.07	275.67	-291.8	359.13	399.21	-279.94	268.15	385.66	-337.34	300.85	394.09	-227.88	325.53	393.37	-386.86	204.43	374.05	-377.19	209.88	293.55	-454.69	220.05	325.25	-473.53	200.19	296.93	-472.21	202.76	359.18	-388.15	56.849	394.32	-372.29	47.02	285.51	-321.27	39.239	318.56	20.434	679.33	98.052	108.23	619.49	128.42	42.329	589.16	122.73	94.015	706.64	104.55	99.664	517.66	136.99	101.3	520.59	266.51	55.473	300	132.8	127.78	218.32	152.14	64.396	223.22	141.93	119.35	294.29	142.84	100.8	105.97	154.56	112.01	115.96	241.45	36.162	75.008	198.43	46.744	42.963	232.38	44.227	45.243	167.03	222.37	44.06	137.18	244.95	54.74	244	299.63	70.631	198.98	-103.4	1488.8	281.29	-187.16	1279.1	283.56
255	1.0583	101.45	1269.3	254.61	-11.602	1431.6	413.34	-39.819	1452.6	116.62	-32.421	1747.4	273.47	56.267	993.7	378.75	51.893	1021.4	147.95	-146.13	1022.1	295.97	-142.57	1030.9	214.93	-24.827	916.14	451.63	-4.3883	961.3	88.376	-36.839	1074.8	427.24	-19.058	1091.7	120.6	-166.26	992.34	257.73	-46.164	705.82	447.36	1.7944	619.97	415.97	-64.129	618.65	438.77	22.015	709.03	420.76	-96.002	494.9	403.77	-89.993	495.11	276.12	-284.04	360.18	399.09	-273.21	269.03	386.18	-330.28	302.43	394.07	-220.54	325.82	393.83	-380.52	206.57	374.45	-370.6	211.91	293.58	-446.91	224.31	325.49	-466.37	205.17	297.03	-465.09	207.59	359.32	-386.27	58.681	394.15	-370.49	48.536	285.41	-320.3	38.666	318.56	26.729	679.24	97.733	114.41	619.46	128.55	48.527	589.1	122.55	100.26	706.62	104.64	105.71	517.51	137.3	106.89	520.65	266.85	59.209	300.33	132.73	130.36	217.75	152.59	67.099	223.45	141.98	122.95	293.82	143.15	101.65	105.97	154.71	112.85	115.81	241.72	36.388	75.222	198.5	46.807	43.084	232.41	44.29	45.453	167.05	222.55	43.494	137.08	245.29	53.478	244.13	300.17	69.006	199.03	-97.995	1488.5	280.53	-181.69	1278.8	282.71
